<?xml version="1.0" standalone="no"?>
<!DOCTYPE svg PUBLIC "-//W3C//DTD SVG 20010904//EN"
 "http://www.w3.org/TR/2001/REC-SVG-20010904/DTD/svg10.dtd">
<svg version="1.0" xmlns="http://www.w3.org/2000/svg"
 width="1024.000000pt" height="1024.000000pt" viewBox="0 0 1024.000000 1024.000000"
 preserveAspectRatio="xMidYMid meet">

<g transform="translate(0.000000,1024.000000) scale(0.100000,-0.100000)"
fill="#000000" stroke="none">
<path d="M0 5120 l0 -5120 5120 0 5120 0 0 5120 0 5120 -5120 0 -5120 0 0
-5120z m2825 1942 c77 -47 268 -163 425 -257 157 -95 368 -223 470 -285 102
-62 259 -158 350 -213 91 -55 498 -303 905 -552 407 -248 830 -506 940 -572
110 -66 250 -151 310 -188 61 -37 142 -87 180 -110 39 -23 205 -124 370 -225
165 -100 374 -228 465 -283 320 -194 418 -258 424 -274 10 -26 -5 -1295 -16
-1316 -5 -9 -12 -17 -17 -17 -4 0 -68 37 -142 81 -74 45 -165 100 -204 123
-38 24 -151 92 -250 153 -748 456 -1032 629 -1175 716 -91 55 -244 149 -340
208 -145 88 -339 205 -760 459 -25 15 -209 127 -410 250 -201 123 -439 268
-530 323 -91 55 -338 205 -550 335 -212 129 -439 267 -506 308 -66 40 -127 81
-136 91 -15 16 -15 80 -9 668 4 358 11 656 15 663 12 19 37 8 191 -86z m4190
68 c175 -20 323 -90 445 -211 125 -123 199 -270 221 -439 10 -76 4 -1354 -7
-1617 -6 -128 -7 -133 -28 -133 -12 0 -30 6 -41 14 -11 7 -147 91 -303 185
-600 363 -791 483 -797 501 -11 35 15 1682 26 1697 14 16 346 18 484 3z
m-4216 -2029 c80 -48 229 -139 331 -201 102 -62 210 -127 240 -145 30 -17 87
-51 125 -75 39 -24 79 -48 90 -54 72 -40 165 -100 180 -116 15 -17 16 -76 8
-855 -8 -818 -8 -837 -28 -851 -16 -12 -55 -14 -230 -9 -115 4 -244 11 -285
17 -84 11 -196 49 -252 84 -21 13 -40 24 -43 24 -3 0 -34 23 -68 51 -155 129
-244 294 -267 502 -10 84 5 1691 16 1708 11 19 41 6 183 -80z"/>
</g>
</svg>
